<svg id="Layer_1" data-name="Layer 1" xmlns="http://www.w3.org/2000/svg" viewBox="0 0 570.1 517.2"><defs><style>.cls-1{fill:#fff;}</style></defs><path class="cls-1" d="M80.1,182.9l5.4,2.7a2.9,2.9,0,0,1-.2.9l-4.6-.5c0,.4.1.7.1,1.1l2.9.5c1.1.1.6,14.6.4,21-.4,11.4-.7,22.7-.9,34.1a60.1,60.1,0,0,0,.4,7.4c.2,2.6,1.3,3.8,3.9,4.4l2.4.4c3.2.2,3.2.2,4,3.4.2,1-1.5,3.3-2.5,3.4-4.5.3-7.6,3.2-7.8,7.7a159,159,0,0,0,.9,26.7A47.5,47.5,0,0,0,88,309.9a13.3,13.3,0,0,0,8.9,7.4,136.4,136.4,0,0,0,26.9,4.6,3,3,0,0,1,2.7,1.8c2.7,5.2,5.9,9.9,11.2,12.6a21.6,21.6,0,0,0,7.4,2.1c6.3.6,12.7.8,19,1.2s11.8-2.5,16.2-7.2c1.4-1.5,2.5-3.1,3.9-4.6a3.5,3.5,0,0,1,2.1-1l34.8,2.3a82.4,82.4,0,0,0,19.8-1.1c6.7-1.2,13.4-2.1,20.2-3.1.9-.2,1.1.2,1.4,1,1.4,3.6,2.5,7.4,4.4,10.8,3.8,6.7,9.7,10.2,17.3,10.7l19.6,1.3c9.6.7,16.6-3.6,22-11.2a47.9,47.9,0,0,0,6.8-14.9c.4-1.3.9-2,2.5-1.7s2.7-.2,2.8-2.4c0-9.8.3-19.6-1.2-29.3-1.1-6.6-3-12.8-6.7-18.4-5-7.8-11.9-12-21.2-12.2l-4.8-.4v-.4c3.8,0,7.6-.2,11.4.1,7.7.5,12.4,5.5,16.4,11.4,5.2,7.8,7.3,16.7,7.9,25.9.3,6.6.3,13.2.3,19.9,0,1.5.4,2,2,1.8l28.5-3.6,20.4-2.6,25.9-3.2c1.7-.3,2.4-.1,2.7,1.9a20.8,20.8,0,0,0,4.5,10.3,6.2,6.2,0,0,0,4.9,2.3c5.3.1,10.7.1,16.1.4s8.9-2.1,10.9-7a4.5,4.5,0,0,1,.6-1.2c.5.6.7,1.3,1.2,1.6a14.3,14.3,0,0,0,3.6,2,8.2,8.2,0,0,0,3.5.2c6.2,0,9.1-2.1,10.5-8.2a87,87,0,0,0,1.7-10c.2-1.4.7-1.9,2.1-1.9,3.3,0,6.5-.2,9.8-.3,1.3,0,2.2-.4,2.2-1.8s-.9-1.6-1.9-1.6-1.7-1.1-1.7-2.2c-.3-8.2-.7-16.3-.9-24.4-.1-1.5-.7-1.8-2-1.9L444,262.8c-9.5-.7-19.1-1.4-28.6-2.3l-39-3.4-35.9-2.8c-11.6-.8-23.3-1.4-34.9-2.1h-6.4c-5.4.1-9.3,2.6-11.9,7.3a66.9,66.9,0,0,0-6.2,17.4,180,180,0,0,0-5,37.3c-.1,4.7-1.2,5.8-6.6,6.6L233,325.9c-.2.1-.3,0-.7-.1l2.3-2.1a7.9,7.9,0,0,0,2.9-6.6c-.5-16.1-.8-32.2-1.2-48.3v-1c-.6-5-2.2-6.6-7.3-6.6s-7.5.1-11.2.1a4.7,4.7,0,0,1-2.5-.5c.2-.2.4-.5.7-.5,5.9-.3,11.9-.9,17.8-.8s7.4,3,7.7,8.2.6,10.4.8,15.6c0,1.3.5,1.7,1.9,1.7q10.4-.6,20.7-.9c1.4-.1,1.6-.6,1.7-1.8.8-11.3,2.8-22.4,7.8-32.8a31.8,31.8,0,0,1,2.3-4c3.2-5,8.1-6.5,13.7-6.6H296c1.1,0,1.6-.3,1.6-1.6l-.3-31.5c-.1-8.4,0-16.8-.4-25.1-.8-15.4-1.8-30.9-3-46.3-.5-6.4-1.9-12.8-2.8-19.2a2.9,2.9,0,0,0-2.1-2.4l-19.5-7.2-22-8.1c-4.1-1.4-7.4-4.1-10.7-6.8a5.2,5.2,0,0,0-3.1-1.2c-8.6.7-17.3,1.3-25.8,2.3s-14.4,2.1-21.6,3.3-14.2,2.4-21.3,3.9c-11.6,2.6-23.2,5.3-34.8,8.2-7.1,1.9-14.1,4.3-21.1,6.5-4.2,1.3-6.6,4.3-7.9,8.4s-2.6,8.8-3.9,13.2a2.2,2.2,0,0,1-1.9,1.9l-5.3,1.5a5.4,5.4,0,0,0-4.1,5.7c.1,1.6-.5,2.4-2,2.6l-1.3.4c-3.1,1.2-3.7,2.1-3.8,5.4m175.8-45.4,28.1,9.8a2.4,2.4,0,0,1,1.7,2.3c.9,14.2,1.9,28.4,2.8,42.6.2,2.4.3,4.9.4,7.3a24.2,24.2,0,0,1,0,2.7L272.1,169l-15.4-3.1c-1.7-.3-2.4-.8-2.2-2.6a1.7,1.7,0,0,1,1.7-1.9l4.5-.6c2.7-.5,4.1-1.9,4.5-4.5a11.8,11.8,0,0,0,.2-2.6V120.2c0-4.2-1.4-5.7-5.7-6.2l-10.3-1.2c-3.4-.3-4.2.4-4.2,3.8l.3,38.7c0,1.3,0,2.6-.1,3.8s-.7,1.7-2,.9a4.1,4.1,0,0,1-1.7-3.8c.2-3.2.4-6.4.5-9.7q.6-14.2.9-28.5c0-2.7.8-4.6,3.3-5.9s4.2-2.9,6.4-4.3A2.6,2.6,0,0,1,254.7,107.5Zm-17.9-6.3,13.7,4.6v.7a41.5,41.5,0,0,1-4.3,3c-5.5,3.3-5.5,3.3-5.7,9.7l-1.2,36c-.2,4.6.3,5.4,4.8,7.4,1.4.5,1,1.6,1,2.6s-.7,1.1-1.5,1.2l-6.7.6c-1,.1-1.8.7-1.5,1.7s1.2,1.4,1.7,1.3a65.4,65.4,0,0,0,8.8-1.8c1.7-.4,1.7-2.1,1.8-3.6s1.3-3,3.3-2.5c.3.1.8.7.7,1.1a44.5,44.5,0,0,1-.5,5,3.6,3.6,0,0,1-3.2,3,31.5,31.5,0,0,1-6.1.6c-4.4-.3-7.6,1.2-9.2,5.4a2.4,2.4,0,0,1-.6.8h-.6C233.4,152.5,235.1,127.1,236.8,101.2ZM98.7,142.6c.5-2.4.9-4.8,1.6-7.1a2.7,2.7,0,0,1,1.7-1.6c8.2-2.4,16.3-4.9,24.5-6.8,11.1-2.5,22.2-4.7,33.4-6.7s23.7-3.6,35.5-5.4l29.3-4.5c1.9-.3,2.1-.1,2,1.8-1,12.9-1.9,25.8-2.9,38.7-.4,5-.7,10.1-1,15.2-.1,1-.4,1.5-1.4,1.6l-12,1.3c-9.6,1-19.1,1.9-28.6,3s-21.3,2.5-31.9,3.9c-8,1-16,2.2-24,3.4l-26.3,4.3L90,185.5c.4-2.4.6-4.4,1-6.4C93.5,166.9,96.1,154.8,98.7,142.6Zm93.1,76.9c-15.3,1.2-30.6,2.2-46,3.3l-47.6,3.6H96.8l-.2-.3c-.5-3.7-.5-3.7,3.2-4l46-4,31.8-2.2,19.2-1.4h4.1a3.5,3.5,0,0,1-2.8,4A34.4,34.4,0,0,1,191.8,219.5Zm5.9,8.5c.2,2.7-2.2,4.9-5.4,5.1l-16.7,1-42.4,2.4L103,238.2a6.7,6.7,0,0,1-5.4-2.2,17,17,0,0,1-1-1.4l.3-.6Zm1.1-22.4-33.6,2.9-31.9,2.8-30,2.9-5.2.5c-.8.1-1.9.4-1.8-1s-.6-2.7,1.4-2.9l8.1-1.1,28.1-2.9,25.5-2.4,33.1-2.9,9.9-.7c.2.4.2.4.2.5C202.8,205.3,202.8,205.2,198.8,205.6Zm-109-64.2,6.5-2.1c-1.7,8.5-4,16.3-5.8,24.2.2-3,.5-6.1.6-9.1a28.2,28.2,0,0,0-.2-5.8c-.1-.8-.9-1.5-1.4-2.2s-.9-1.2-.9-1.7S88.1,142,89.8,141.4ZM88,252.7c-2.4-.1-3.1-.8-3.5-3.1a27.3,27.3,0,0,1-.3-5.7c.3-12.9.7-25.7,1.1-38.6,0-.4.1-.9.2-1.7a51.9,51.9,0,0,1,4.8,4.3c.4.3.4,1.2.4,1.8,0,7.3-.1,14.6-.1,22a26.2,26.2,0,0,0,.7,6.8c1,3.8,5.3,7.3,9.4,7.1l17.5-.5,63.9-3.1a113.3,113.3,0,0,0,14.3-1.2c6.4-1,9.8-5.2,10.4-11.6.8-9.5,1.7-19,2.6-28.5a4.8,4.8,0,0,1,2.6-4.2c5.3-2.8,10.4-5.7,15.6-8.6l1.2-.5c0,.6.1,1.1.1,1.6.1,18.2.1,36.4.2,54.6,0,1.7-.6,2.8-2.2,3.2-3.7,1-7.4,2.3-11.2,2.8-5.5.7-11.1,1-16.7,1.2l-60.6,2c-11.3.4-22.6.9-33.9,1C99,253.8,93.5,253.2,88,252.7Zm14.2,49.7c.1,1.6-.7,2.2-2.2,2.1H97.7a35.4,35.4,0,0,1-4.7-.7,2.7,2.7,0,0,1-2.4-3.1c.2-1.6,1.1-2.5,3-2.4a50.2,50.2,0,0,1,6.7.4c.7.1,1.4,1,1.8,1.7S102.2,301.7,102.2,302.4Zm3.2-12.5-18.8-1.8c-1.5-.1-2.2-.7-2.1-2.4,0-3.7-.2-7.5-.2-11.2a17,17,0,0,1,.1-2.1l2.8.8,14.4,5.8a3.9,3.9,0,0,1,1.8,1.8c1.4,2.9,2.6,5.8,4,9ZM174,312.1l-8.9-.7-32.6-2-14.7-1c-1.1,0-1.5-.5-1.6-1.6h0c-.5-5-.4-5.2,4.6-5l41.7,2,9.8.5,1.7.2Zm7.8-25.1c-1.6,4.4-5,6.4-9.5,6.8a43,43,0,0,1-6.2.1l-46.2-1.6a18.3,18.3,0,0,1-4-.5,7.4,7.4,0,0,1-5.1-4c-3.5-7.2-5.5-14.9-7.5-23l89.3-1.6-1.8,2.4c-3.6,4.1-4.7,9.3-6.4,14.2ZM217,307.2c-.4.7-1.4,1.7-2.2,1.7-4.8.1-9.6.1-14.3-.1-2.7-.1-3.4-1.2-3.1-3.7s1-2.4,2.6-2.3h6.9c2.5,0,5-.2,7.4,0S218,304.9,217,307.2Zm-30.7-15.4-1.1-.2a18.9,18.9,0,0,1,1.4-1.9L197,278.2a4.2,4.2,0,0,1,2.4-1.2l32-4.4c2.3-.3,2.4-.2,2.4,2.2.2,5,.3,9.9.4,14.9,0,1-.1,1.6-1.4,1.6ZM307,281.9a7.8,7.8,0,0,1,8.3.8c4.1,2.9,6,7.2,7.2,11.9a98.1,98.1,0,0,1,1.6,9.7,30.1,30.1,0,0,1-5.6,17.4,16.4,16.4,0,0,1-2.9,3c-3.9,3.2-8.4,3.1-12.3-.2a19.1,19.1,0,0,1-5.8-10c-2.6-9.5-1.9-18.6,3.4-27.1A14.8,14.8,0,0,1,307,281.9Zm133.1-5.1a58.9,58.9,0,0,0-2.7,21.7c.1,1.6-.3,2.1-2,2.2l-28.1,2.9-16.1,1.8H389c4.5-10.8,4.3-21.4,1.1-32.3a16,16,0,0,1,2.2,0l44,1.6a2.6,2.6,0,0,0,3.1-1.8c1.3-3.1,3.2-5.7,6.9-6.1a10.1,10.1,0,0,1,3.7.7c-5.4-.4-7.4,3.4-9.2,7.3A15.9,15.9,0,0,0,440.1,276.8ZM451.4,307c-.4,1.5-1.7,3.6-2.9,3.7s-2.4-1.9-3-3.5a32.1,32.1,0,0,1-1.4-13.1c.2-3.1.4-6.1,2.1-8.8a23.9,23.9,0,0,1,2.2-2.3c.8.8,1.9,1.5,2.2,2.4,1,3.2,1.8,6.5,2.7,9.7C452.6,299.2,452.2,303.2,451.4,307Zm13.2-35.1c2.6-.9,4.6-1.1,7.1,0Zm6.8,32.6c-.3.9-1.4,1.6-2.1,2.5-.8-.9-1.9-1.7-2.2-2.8a29.4,29.4,0,0,1-1.2-14.1,24.1,24.1,0,0,1,1.7-5.8c.7-1.6,1.8-1.7,2.8-.3a13,13,0,0,1,1.8,4.6c.4,2.3.5,4.7.8,8.1S472.1,301.6,471.4,304.5Zm6.4-8.7h-.4V284.1h.1c.2,3.6.3,7.2.5,10.8A2.9,2.9,0,0,1,477.8,295.8Z"/><path class="cls-1" d="M120.6,101.1c2.7-4.7,5.8-8.5,10.3-11,6.1-3.3,12.6-5.3,19.2-7.2,14.3-4.3,28.6-8.6,43.1-12.2,12.6-3.2,25.4-5.9,38.2-8.1C247.1,60,262.9,58,278.7,56a47.5,47.5,0,0,1,11.3-.2c5.9.7,9.9,5.5,10.2,11.4.5,9.3.8,18.6,1.2,27.9s.7,17.7,1,26.6a4.7,4.7,0,0,1-.5,2.2c-.5-3.6-1-7.3-1.7-10.9a34,34,0,0,0-1.5-6.3,16.3,16.3,0,0,0-9.8-9.9q-22.5-8.4-44.8-17.3c-7-2.8-14.2-2.9-21.4-1.7-12.3,2-24.6,3.8-36.7,6.3s-25.5,5.6-38.2,8.9c-8.7,2.3-17.2,5.2-25.8,7.8Z"/><path class="cls-1" d="M243.6,316.1c-.1-3-.2-5.7-.3-8.4-.3-5-.5-10-.8-15-.1-1.2.3-1.7,1.5-1.7l20.4-1.2c1.6-.1,2,.4,2,1.9,0,6.8.1,13.5.3,20.2,0,1.3-.6,1.6-1.5,1.7l-12.9,1.6Z"/><path class="cls-1" d="M109.8,270.1H181a60.8,60.8,0,0,1-2.1,6c-.1.4-1.3.6-2,.6l-34.1-.2-29.5-.3c-1.3,0-1.8-.4-2.1-1.5S110.4,272,109.8,270.1Z"/><path class="cls-1" d="M176.4,282.2c-.7,4.4-3.4,7.1-7.4,7.1l-27.4-.6-21.4-1c-2.7-.1-4.5-1.8-5.7-4.1s-.5-2.1,1.2-2.1l30.5.4,28.5.2Z"/><path class="cls-1" d="M392.9,175.7l-13.7,17c-3.9-5.3-7.5-10.8-11.5-15.8-10.8-13.6-27.2-13.7-34.5,0s-.8,37.7,14.3,44.1c8.7,3.6,16.1,1.9,22-5.1L396,184.1c2.2-2.7,4.1-6,6.4-8.6,3.5-4.2,7.2-8.1,10.8-12,1.3-1.3,1.5-2.2.2-4.3-15.9-26.1-8.5-63.7,16.7-65.1,10.7-.6,20.2,5.6,28.2,17.3,11.6,16.9,13.4,41.2,5,55.2-.5.7-.9,1.5-1.6,2.7l1.8,2c9.7,13,13.6,27.9,12.6,44.6-1.7,26.5-20,45.1-41.7,38a37.5,37.5,0,0,1-18.5-13.5c-4-5.3-8-10.9-11.8-16.1L417,207.2c3.5,4.9,6.7,9.6,10.1,14.2,4.8,6.4,10.3,9.6,16.5,8.9s13.9-8.3,14.9-18.7c1.2-12.7-4.7-25.1-13.2-30s-14.2-2.8-19.6,3.9c-8.4,10.2-16.8,20.8-25.4,31.5-5.4,6.6-10.7,13.4-16.3,20.1-10.5,12.5-23.8,16.1-39.3,10.8-17.3-5.8-29.6-20-35.9-41.1s-3-44.9,11.8-58l1.7-1.4c-2.4-4.6-5-8.7-6.7-13.2-12.1-30.7.7-60.4,25.8-60.9,20-.3,39.3,19.5,44.3,44.3,2.9,14,1.3,26.4-5.5,36.2-1.2,1.7-1.1,2.7.4,4.6C384.9,164.2,389,170.1,392.9,175.7Zm57.7-36.2c-.3-9.5-6.1-18.3-13.3-19.8s-12.8,5.2-12.6,14.8,6.6,18.7,13.8,19.9S450.9,149,450.6,139.5Zm-99.5,0c8.4,1.4,14.9-5.8,14.6-16s-7.5-20.2-16-21.9-15.5,5.5-15.1,16.2S342.5,138.1,351.1,139.5Z"/><path class="cls-1" d="M55.8,374.8a2.5,2.5,0,0,0-1.9.7,3,3,0,0,0-.7,2v5.2c0,13.6-.2,24.1-.6,31.7s-1.5,13.3-3.1,17.5-4,6.2-7.3,6.2a26,26,0,0,1-4-.3,2.8,2.8,0,0,0-2.1.6,2.3,2.3,0,0,0-.8,1.9V458a2.4,2.4,0,0,0,2.4,2.7l3.9.7a23.1,23.1,0,0,0,3.7.3c9.4,0,16.4-3.3,21.1-9.8A50.8,50.8,0,0,0,75.1,429a234.4,234.4,0,0,0,1.8-31H89.4l-.2-23.2Z"/><path class="cls-1" d="M124.9,375.9a2.4,2.4,0,0,0-1.9-.7H92.8l.2,23.2h7.1v59.8c0,1.7.8,2.6,2.5,2.6H123a2.4,2.4,0,0,0,1.9-.7,2.7,2.7,0,0,0,.7-1.9V377.8A2.7,2.7,0,0,0,124.9,375.9Z"/><path class="cls-1" d="M156.7,376.3l6.8,22.3a3.7,3.7,0,0,1-.1,3.1l-8.7,22.7c-.4.9-.9,1.3-1.5,1.3s-1.1-.4-1.5-1.3l-18.3-47.3c-.7-1.7-.2-2.6,1.7-2.6h19A2.3,2.3,0,0,1,156.7,376.3Zm22.9-1.8h17.7a2.3,2.3,0,0,1,1.8.7,2.1,2.1,0,0,1-.1,2l-31.3,81.1a2,2,0,0,1-2.2,2.3H147.8a2.1,2.1,0,0,1-2.3-2.3l31.3-82A2.7,2.7,0,0,1,179.6,374.5Z"/><path class="cls-1" d="M267.3,376.3a5,5,0,0,1,.8-1.5,2.5,2.5,0,0,1,1.7-.4h18.7c1.5,0,2.3.7,2.3,2.1v82.1c0,1.5-.7,2.3-2.2,2.3H272c-1.5,0-2.2-.8-2.2-2.3V421.8l-12.2,31.7a3.5,3.5,0,0,1-.7,1.5,2.5,2.5,0,0,1-1.7.4H241.1a2.2,2.2,0,0,1-1.6-.5l-.8-1.4-33-76.1a2.2,2.2,0,0,1,0-2.1,1.8,1.8,0,0,1,1.8-.9h18.7a2.8,2.8,0,0,1,2.8,1.8l19.2,52.1Zm-60.6,15a1.4,1.4,0,0,1,1.8,1l17.1,39.5a12.8,12.8,0,0,1,.7,2.1,6.4,6.4,0,0,1,.3,2v22.9a1.9,1.9,0,0,1-2.2,2.1H207.8c-1.5,0-2.3-.7-2.3-2.1V392.7A1.3,1.3,0,0,1,206.7,391.3Z"/><path class="cls-1" d="M322.7,461H303.9a2,2,0,0,1-2.1-1.2V376.5c0-1.4.8-2.1,2.3-2.1h17.6a1.9,1.9,0,0,1,2.2,2.1v44.2l21.7-44.5a2.7,2.7,0,0,1,2.7-1.8h19.9c.9,0,1.5.2,1.8.7a2.1,2.1,0,0,1,0,1.9l-44.6,82.3A2.8,2.8,0,0,1,322.7,461Zm45.2-.1H350.3a1.9,1.9,0,0,1-2.2-2.1V426.5a12.3,12.3,0,0,1,.2-2c.2-.6.5-1.3.8-2l18.1-33.4a1.4,1.4,0,0,1,1.8-1,1.3,1.3,0,0,1,1.2,1.4v69.3C370.2,460.2,369.4,460.9,367.9,460.9Z"/><path class="cls-1" d="M401.6,460.9H383.4c-1.5,0-2.2-.8-2.2-2.3V376.5c0-1.4.7-2.1,2.2-2.1h18.1c1.5,0,2.3.7,2.3,2.1v82.1C403.8,460.1,403.1,460.9,401.6,460.9Zm5.5-34.9V408.9c0-1.5.8-2.2,2.3-2.2H428V376.5a1.9,1.9,0,0,1,2.2-2.1h18.1c1.6,0,2.3.7,2.3,2.1v82.1c0,1.5-.7,2.3-2.2,2.3H430.2a2,2,0,0,1-2.2-2.3V428.2H409.4C407.9,428.2,407.1,427.5,407.1,426Z"/><path class="cls-1" d="M478.3,460.9h-19a2,2,0,0,1-1.8-.7,1.9,1.9,0,0,1,.1-1.9l26-82.1a2.5,2.5,0,0,1,2.6-1.8h15.6c1.7,0,2.3.9,1.8,2.6L481,459.2A2.6,2.6,0,0,1,478.3,460.9Zm32.2-1.7-2.8-10.7H490.1a2.6,2.6,0,0,1-1.9-.7,2,2,0,0,1-.1-2l4.1-14.9a2.5,2.5,0,0,1,2.5-2.1h8l-4.5-17a4.8,4.8,0,0,1,.2-3.1l7.9-28.8c.3-1,.8-1.5,1.4-1.5s1.2.5,1.6,1.5l25.1,78.5c.7,1.7.2,2.5-1.7,2.5H513A2.3,2.3,0,0,1,510.5,459.2Z"/></svg>